<svg width="751" height="815" viewBox="0 0 751 815" fill="none" xmlns="http://www.w3.org/2000/svg">
<g clip-path="url(#clip0_1149_8171)">
<rect x="151.707" y="31.355" width="111.14" height="333.421" rx="55.5702" transform="rotate(30 151.707 31.355)" fill="#6CCC78"/>
<rect x="358.148" y="1.5918" width="111.14" height="333.421" rx="55.5702" transform="rotate(30 358.148 1.5918)" fill="#6CCC78"/>
<rect x="163.652" y="338.468" width="111.14" height="333.421" rx="55.5702" transform="rotate(30 163.652 338.468)" fill="#6CCC78"/>
<rect x="163.652" y="338.468" width="111.14" height="333.421" rx="55.5702" transform="rotate(30 163.652 338.468)" fill="#6CCC78"/>
<rect x="423.43" y="188.281" width="111.14" height="333.421" rx="55.5702" transform="rotate(30 423.43 188.281)" fill="#6CCC78"/>
<rect x="560.383" y="-20" width="111.14" height="333.421" rx="55.5702" transform="rotate(30 560.383 -20)" fill="#6CCC78"/>
<rect x="631.898" y="153.302" width="111.14" height="333.421" rx="55.5702" transform="rotate(30 631.898 153.302)" fill="#6CCC78"/>
<rect x="437.402" y="490.179" width="111.14" height="333.421" rx="55.5702" transform="rotate(30 437.402 490.179)" fill="#6CCC78"/>
<rect x="674.414" y="402.007" width="111.14" height="333.421" rx="55.5702" transform="rotate(30 674.414 402.007)" fill="#6CCC78"/>
</g>
<defs>
<clipPath id="clip0_1149_8171">
<rect width="750" height="815" fill="white" transform="translate(0.570312)"/>
</clipPath>
</defs>
</svg>
